<svg width="660" height="492" viewBox="0 0 660 492" fill="none" xmlns="http://www.w3.org/2000/svg">
<path d="M76.5601 294.611C92.8489 313.157 133.571 331.004 159.548 329.222C192.72 326.965 197.34 304.419 223.08 296.38C292.736 274.679 347.292 315.415 406.639 347.86C538.151 419.681 661.188 307.046 544.46 188.14C474.302 116.689 309.223 35.1522 255.38 162.691C232.109 217.814 261.65 230.077 187.176 224.203C157.846 221.893 2.70605 210.593 76.5601 294.611Z" fill="#2F7EA2"/>
<path opacity="0.9" d="M76.5601 294.611C92.8489 313.157 133.571 331.004 159.548 329.222C192.72 326.965 197.34 304.419 223.08 296.38C292.736 274.679 347.292 315.415 406.639 347.86C538.151 419.681 661.188 307.046 544.46 188.14C474.302 116.689 309.223 35.1522 255.38 162.691C232.109 217.814 261.65 230.077 187.176 224.203C157.846 221.893 2.70605 210.593 76.5601 294.611Z" fill="white"/>
<path d="M330 491.779C471.349 491.779 585.935 485.089 585.935 476.837C585.935 468.584 471.349 461.895 330 461.895C188.651 461.895 74.0654 468.584 74.0654 476.837C74.0654 485.089 188.651 491.779 330 491.779Z" fill="#E6EBEF"/>
<path d="M394.429 462.845L375.764 460.68V353.615H359.766V460.68L341.101 462.845L339.478 468.152H396.053L394.429 462.845Z" fill="#343B4C"/>
<path opacity="0.4" d="M394.429 462.845L375.764 460.68V353.615H359.766V460.68L341.101 462.845L339.478 468.152H396.053L394.429 462.845Z" fill="#2F7EA2"/>
<path d="M363 209.551H446.16C432.079 253.557 424.84 299.465 424.697 345.669H341.537C341.68 299.465 348.919 253.557 363 209.551Z" fill="#2F7EA2"/>
<path opacity="0.3" d="M363 209.551H446.16C432.079 253.557 424.84 299.465 424.697 345.669H341.537C341.68 299.465 348.919 253.557 363 209.551Z" fill="#343B4C"/>
<path d="M357.944 209.551H441.104C427.018 253.556 419.775 299.464 419.628 345.669H336.468C336.609 299.464 343.852 253.555 357.944 209.551Z" fill="#2F7EA2"/>
<path d="M405.597 358.447H287.879C292.829 347.676 301.831 341.076 311.547 341.076H397.624L405.597 358.447Z" fill="#2F7EA2"/>
<path d="M429.515 358.447H372.676C377.613 347.676 386.615 341.076 396.343 341.076H416.46C426.175 341.076 430.98 346.686 429.515 358.447Z" fill="#2F7EA2"/>
<path opacity="0.3" d="M429.515 358.447H372.676C377.613 347.676 386.615 341.076 396.343 341.076H416.46C426.175 341.076 430.98 346.686 429.515 358.447Z" fill="#343B4C"/>
<path d="M313.434 457.13L302.782 458.529L295.852 434.399L306.504 433L313.434 457.13Z" fill="#FFC3BD"/>
<path d="M301.449 455.744L313.329 454.173C313.528 454.142 313.731 454.19 313.896 454.305C314.061 454.421 314.174 454.596 314.213 454.794L316.035 464.179C316.102 464.676 315.971 465.179 315.67 465.58C315.368 465.98 314.92 466.245 314.424 466.317C310.253 466.793 308.233 466.806 302.98 467.505C299.746 467.928 288.618 469.472 284.117 469.499C279.616 469.525 279.84 465.077 281.688 464.641C290.229 462.793 297 459.361 299.693 456.629C300.165 456.148 300.782 455.837 301.449 455.744Z" fill="#343B4C"/>
<path opacity="0.2" d="M306.504 433.014L295.852 434.413L299.429 446.847L310.081 445.448L306.504 433.014Z" fill="#343B4C"/>
<path d="M348.374 302.412C348.374 302.412 264.884 308.392 268.25 338.976C273.095 382.945 292.01 440.682 292.01 440.682L311.375 437.356C311.375 437.356 303.27 384.12 298.967 349.8C319.796 341.167 376.292 349.444 382.919 331.452C386.169 322.134 387.027 312.148 385.414 302.412H348.374Z" fill="#343B4C"/>
<path opacity="0.3" d="M307.692 327.875C307.692 327.875 309.725 336.97 311.111 346.843H310.926L308.788 347.173L307.692 347.385L306.465 347.609C304.788 347.961 303.131 348.401 301.501 348.929L300.379 349.299C299.891 349.457 299.416 349.655 298.967 349.84C299.455 353.8 301.145 358.961 301.158 363.475C282.586 341.511 297.898 327.875 307.692 327.875Z" fill="#343B4C"/>
<path d="M314.411 441.752L291.694 444.735L288.631 436.564L311.375 431.469L314.411 441.752Z" fill="#2F7EA2"/>
<path d="M297.911 458.041C298.864 457.891 299.797 457.638 300.696 457.289C300.741 457.272 300.781 457.244 300.811 457.207C300.842 457.17 300.861 457.125 300.868 457.077C300.87 457.028 300.857 456.979 300.831 456.937C300.805 456.894 300.768 456.861 300.723 456.84C300.353 456.642 297.079 454.979 295.839 455.665C295.7 455.745 295.582 455.858 295.497 455.993C295.412 456.129 295.361 456.284 295.35 456.444C295.299 456.688 295.317 456.941 295.404 457.174C295.49 457.408 295.641 457.612 295.839 457.764C296.471 458.11 297.21 458.209 297.911 458.041ZM299.97 457.025C298.122 457.645 296.71 457.777 296.142 457.341C296.021 457.238 295.93 457.104 295.879 456.952C295.828 456.801 295.818 456.639 295.852 456.483C295.853 456.406 295.874 456.33 295.913 456.262C295.953 456.195 296.009 456.14 296.076 456.101C296.749 455.784 298.637 456.444 299.97 457.077V457.025Z" fill="#2F7EA2"/>
<path d="M300.643 457.354C300.677 457.367 300.715 457.367 300.749 457.354C300.786 457.33 300.816 457.296 300.837 457.257C300.858 457.218 300.868 457.174 300.868 457.13C300.868 457.011 300.696 453.909 299.482 453.025C299.329 452.904 299.15 452.822 298.96 452.786C298.769 452.749 298.572 452.758 298.386 452.813C298.174 452.848 297.979 452.952 297.834 453.11C297.688 453.268 297.599 453.47 297.581 453.685C297.489 454.873 299.376 456.892 300.511 457.38C300.557 457.385 300.603 457.376 300.643 457.354ZM298.624 453.236C298.825 453.21 299.028 453.262 299.191 453.381C299.908 454.329 300.306 455.479 300.327 456.668C299.297 456.008 298.017 454.463 298.083 453.685C298.083 453.526 298.149 453.341 298.505 453.262L298.624 453.236Z" fill="#2F7EA2"/>
<path d="M359.938 219.847C359.014 223.992 357.892 227.846 356.77 231.806C355.648 235.766 354.381 239.634 353.008 243.501C351.635 247.369 350.196 251.237 348.625 255.078C347.055 258.919 345.299 262.707 343.411 266.469L343.068 267.143L342.936 267.341C341.792 268.965 340.382 270.384 338.765 271.538C337.525 272.441 336.224 273.257 334.871 273.98C332.45 275.236 329.939 276.313 327.36 277.201C324.865 278.072 322.371 278.798 319.876 279.419C317.364 280.043 314.822 280.537 312.259 280.897L309.791 273.241L316.061 269.73C318.133 268.542 320.179 267.367 322.133 266.153C324.02 265.015 325.844 263.777 327.598 262.443C328.347 261.886 329.049 261.268 329.697 260.595C330.238 260.028 330.634 259.473 330.555 259.421L330.079 260.292C331.518 256.781 332.838 253.177 334.119 249.534C335.399 245.891 336.561 242.195 337.709 238.459C338.857 234.723 339.953 230.988 341.022 227.226C342.091 223.464 343.134 219.636 344.124 216.006L359.938 219.847Z" fill="#FFC3BD"/>
<path d="M342.487 216.983C333.762 227.001 327.967 241.02 327.967 241.02L350.803 254.761C357.403 246.722 365.614 225.483 365.944 218.316C366.458 207.307 351.886 206.198 342.487 216.983Z" fill="#2F7EA2"/>
<path opacity="0.5" d="M342.487 216.983C333.762 227.001 327.967 241.02 327.967 241.02L350.803 254.761C357.403 246.722 365.614 225.483 365.944 218.316C366.458 207.307 351.886 206.198 342.487 216.983Z" fill="white"/>
<path opacity="0.5" d="M350.526 227.2C345.55 231.384 342.012 240.083 340.468 248.531L350.803 254.748C354.064 250.788 357.72 243.594 360.624 236.44C358.301 229.351 354.922 223.504 350.526 227.2Z" fill="#2F7EA2"/>
<path d="M347.305 463.559H336.573L331.65 438.703H342.382L347.305 463.559Z" fill="#FFC3BD"/>
<path d="M336.231 460.944H348.295C348.496 460.937 348.692 461.009 348.84 461.145C348.988 461.28 349.077 461.469 349.087 461.67L349.668 471.213C349.672 471.715 349.477 472.198 349.125 472.557C348.774 472.915 348.296 473.12 347.794 473.127C343.596 473.048 341.59 472.811 336.283 472.811C333.023 472.811 321.961 473.141 317.46 473.141C312.959 473.141 313.078 468.692 314.992 468.283C323.545 466.475 331.36 463.98 334.383 461.604C334.908 461.184 335.558 460.952 336.231 460.944Z" fill="#343B4C"/>
<path opacity="0.2" d="M342.382 438.703H331.65L334.197 451.52H344.929L342.382 438.703Z" fill="#343B4C"/>
<path d="M369.402 302.412C369.402 302.412 298.65 308.392 300.393 339.121C302.293 372.768 329.538 448.43 329.538 448.43H349.193C349.193 448.43 340.296 379.975 335.993 345.708C355.938 345.708 397.32 349.47 403.946 331.478C407.184 322.329 407.837 312.463 405.834 302.966L369.402 302.412Z" fill="#343B4C"/>
<path d="M350.315 448.735L326.74 449.804L324.918 439.68L349.589 439.759L350.315 448.735Z" fill="#2F7EA2"/>
<path d="M332.429 462.819C333.394 462.79 334.354 462.662 335.293 462.436C335.34 462.424 335.382 462.399 335.415 462.364C335.447 462.329 335.469 462.285 335.478 462.238C335.488 462.191 335.484 462.141 335.465 462.096C335.446 462.051 335.414 462.013 335.372 461.987C335.029 461.75 331.993 459.664 330.686 460.179C330.537 460.239 330.406 460.336 330.304 460.461C330.203 460.585 330.134 460.734 330.106 460.892C330.034 461.12 330.026 461.363 330.081 461.596C330.137 461.828 330.255 462.041 330.422 462.212C330.991 462.661 331.707 462.877 332.429 462.819ZM334.607 462.067C332.68 462.449 331.267 462.397 330.766 461.895C330.662 461.773 330.591 461.626 330.561 461.469C330.531 461.312 330.542 461.149 330.594 460.997C330.606 460.919 330.638 460.846 330.686 460.783C330.735 460.721 330.798 460.672 330.871 460.641C331.571 460.377 333.353 461.275 334.607 462.067Z" fill="#2F7EA2"/>
<path d="M335.28 462.435H335.386C335.423 462.417 335.455 462.389 335.478 462.354C335.501 462.319 335.515 462.279 335.517 462.237C335.517 462.105 335.768 459.017 334.686 457.974C334.547 457.841 334.38 457.74 334.197 457.679C334.015 457.617 333.821 457.596 333.63 457.617C333.415 457.627 333.209 457.707 333.044 457.846C332.88 457.984 332.765 458.173 332.719 458.383C332.482 459.545 334.039 461.789 335.148 462.422C335.19 462.44 335.236 462.444 335.28 462.435ZM333.802 458.079C333.902 458.079 334.002 458.098 334.095 458.137C334.188 458.175 334.272 458.232 334.343 458.304C334.938 459.334 335.188 460.527 335.056 461.709C334.118 460.931 333.049 459.228 333.207 458.462C333.207 458.317 333.326 458.132 333.696 458.093L333.802 458.079Z" fill="#2F7EA2"/>
<path d="M314.873 273.531L302.874 270.521L303.719 283.352C303.719 283.352 315.599 283.352 316.602 279.854L314.873 273.531Z" fill="#FFC3BD"/>
<path d="M293.753 276.778L296.578 284.83L303.719 283.352L302.874 270.521L293.753 276.778Z" fill="#FFC3BD"/>
<path d="M348.48 302.966H405.874C406.283 297.845 405.095 281.16 405.979 259.921C406.524 244.183 408.432 228.522 411.682 213.114C411.946 211.952 412.21 210.817 412.487 209.656C412.487 209.656 409.57 209.061 405.398 208.454C401.94 207.939 397.597 207.425 393.347 207.227C385.222 206.758 377.078 206.758 368.953 207.227C365.204 207.57 361.535 208.19 358.618 208.758C354.882 209.51 352.678 210.157 352.678 210.157C352.678 210.157 338.501 242.616 348.48 302.966Z" fill="#2F7EA2"/>
<path opacity="0.5" d="M348.48 302.966H405.874C406.283 297.845 405.095 281.16 405.979 259.921C406.524 244.183 408.432 228.522 411.682 213.114C411.946 211.952 412.21 210.817 412.487 209.656C412.487 209.656 409.57 209.061 405.398 208.454C401.94 207.939 397.597 207.425 393.347 207.227C385.222 206.758 377.078 206.758 368.953 207.227C365.204 207.57 361.535 208.19 358.618 208.758C354.882 209.51 352.678 210.157 352.678 210.157C352.678 210.157 338.501 242.616 348.48 302.966Z" fill="white"/>
<path opacity="0.5" d="M405.94 259.934C406.485 244.192 408.393 228.527 411.642 213.114C407.814 212.784 401.254 213.114 400.171 219.357C398.996 226.01 398.904 241.56 405.94 259.934Z" fill="#2F7EA2"/>
<path d="M416.09 217.088C416.645 218.104 417.028 218.87 417.41 219.728C417.793 220.586 418.216 221.444 418.598 222.368C419.364 224.084 420.09 225.813 420.776 227.555C422.151 231.067 423.337 234.649 424.327 238.287C425.348 241.974 426.137 245.722 426.69 249.507C427.266 253.413 427.496 257.362 427.376 261.308V261.691V262.443C427.334 262.971 427.259 263.495 427.152 264.014C426.949 264.999 426.63 265.956 426.202 266.865C425.481 268.382 424.503 269.762 423.311 270.944C421.537 272.671 419.501 274.105 417.278 275.194C413.69 276.942 409.912 278.271 406.019 279.154C402.407 280.016 398.749 280.672 395.063 281.121C391.419 281.578 387.753 281.843 384.08 281.913L382.998 273.927C389.531 272.095 395.967 269.937 402.283 267.459C405.151 266.35 407.905 264.966 410.507 263.327C411.412 262.767 412.215 262.058 412.883 261.229C413.054 260.978 413.054 260.846 412.962 260.965C412.889 261.068 412.835 261.185 412.804 261.308C412.774 261.394 412.752 261.482 412.738 261.572C412.738 261.572 412.738 261.704 412.738 261.651V261.374C412.237 255.052 410.965 248.815 408.949 242.801C407.946 239.704 406.828 236.624 405.596 233.561C405.002 232.03 404.369 230.499 403.709 228.994L402.692 226.763L401.729 224.691L416.09 217.088Z" fill="#FFC3BD"/>
<path d="M412.447 209.657C401.993 206.357 395.287 214.712 398.191 229.193C401.095 243.673 404.791 249.072 404.791 249.072L429.238 245.614C427.244 231.41 423.139 213.036 412.447 209.657Z" fill="#2F7EA2"/>
<path opacity="0.5" d="M412.447 209.657C401.993 206.357 395.287 214.712 398.191 229.193C401.095 243.673 404.791 249.072 404.791 249.072L429.238 245.614C427.244 231.41 423.139 213.036 412.447 209.657Z" fill="white"/>
<path d="M392.779 179.863L386.259 185.275L377.362 192.72C377.625 193.904 377.815 195.103 377.929 196.31C378.405 201.142 377.164 205.55 370.075 207.2C370.075 207.2 363.093 213.721 377.045 213.919C390.997 214.117 394.205 207.319 394.205 207.319C388.938 202.039 390.971 187.717 392.779 179.863Z" fill="#FFC3BD"/>
<path d="M393.254 203.373C393.254 203.373 385.968 210.989 376.358 213.854C378.083 214.197 379.642 215.113 380.782 216.452C381.922 217.791 382.577 219.475 382.642 221.233C389.545 219.173 397.742 208.798 397.518 206.871C396.026 205.794 394.602 204.626 393.254 203.373Z" fill="white"/>
<path d="M373.256 205.525C373.256 205.525 366.736 210.99 376.358 213.855C374.591 214.067 372.929 214.812 371.595 215.991C370.261 217.17 369.316 218.727 368.887 220.455C367.179 218.557 366.148 216.146 365.957 213.599C365.766 211.053 366.425 208.515 367.831 206.383C369.656 206.214 371.468 205.928 373.256 205.525Z" fill="white"/>
<path opacity="0.2" d="M377.362 192.721C377.625 193.905 377.815 195.104 377.929 196.311C381.243 195.651 385.678 192.113 386.14 188.734C386.299 187.611 386.338 186.474 386.259 185.342L377.362 192.721Z" fill="#343B4C"/>
<path d="M368.847 155.762C364.465 159.392 365.257 173.436 369.468 172.143C373.679 170.849 376.081 149.795 368.847 155.762Z" fill="#343B4C"/>
<path d="M395.472 168.565C393.202 178.993 392.41 185.197 386.232 189.962C384.246 191.525 381.87 192.515 379.362 192.827C376.854 193.139 374.308 192.761 371.999 191.732C369.69 190.704 367.706 189.066 366.26 186.993C364.813 184.92 363.96 182.492 363.792 179.97C362.987 170.255 366.841 154.824 377.811 151.867C380.171 151.167 382.674 151.099 385.068 151.672C387.463 152.244 389.665 153.435 391.454 155.126C393.242 156.818 394.555 158.949 395.261 161.308C395.966 163.667 396.039 166.169 395.472 168.565Z" fill="#FFC3BD"/>
<path d="M392.04 175.719C390.35 173.633 390.232 168.327 391.433 166.637C389.625 165.199 387.816 160.552 389.215 158.717C385.678 158.48 367.369 162.875 363.726 149.728C365.622 150.052 367.559 150.052 369.455 149.728C369.455 149.728 365.732 143.537 372.332 141.689C373.296 144.818 381.256 145.135 385.202 144.989C393.294 144.659 402.521 148.025 398.785 154.309C404.699 156.909 405.662 168.393 392.04 175.719Z" fill="#343B4C"/>
<path d="M397.32 153.913C397.32 153.913 401.36 154.757 400.581 149.609C403.92 152.434 401.782 157.595 397.32 153.913Z" fill="#343B4C"/>
<path d="M397.175 178.201C395.761 180.039 393.723 181.298 391.446 181.738C388.489 182.266 387.592 179.547 388.898 176.92C390.073 174.544 393.03 171.416 395.749 172.089C398.468 172.762 398.93 175.93 397.175 178.201Z" fill="#FFC3BD"/>
<path d="M391.09 172.037C389.991 175.879 388.202 179.489 385.81 182.689C384.565 184.339 382.927 185.651 381.046 186.506C379.165 187.362 377.1 187.733 375.038 187.587C371.25 187.521 371.831 182.307 371.831 182.307L369.97 181.884C369.97 181.884 370.168 188.339 366.472 185.607C365.487 184.463 364.778 183.108 364.399 181.647C364.014 180.504 363.792 179.313 363.739 178.109C362.842 179.535 362.512 185.858 363.884 188.867C365.183 191.126 367.3 192.799 369.798 193.54C374.359 194.834 379.212 194.663 383.671 193.052C390.403 190.412 391.38 183.917 391.591 180.221C391.844 177.484 392.285 174.767 392.911 172.09L391.09 172.037Z" fill="#343B4C"/>
<path d="M377.599 169.515C377.467 170.373 376.913 171.007 376.345 170.941C375.777 170.875 375.434 170.122 375.566 169.277C375.698 168.433 376.266 167.773 376.886 167.839C377.507 167.905 377.731 168.657 377.599 169.515Z" fill="#343B4C"/>
<path d="M367.884 168.353C367.752 169.211 367.198 169.858 366.63 169.792C366.063 169.726 365.719 168.974 365.851 168.116C365.983 167.258 366.551 166.624 367.105 166.69C367.66 166.756 368.016 167.495 367.884 168.353Z" fill="#343B4C"/>
<path d="M370.92 168.697C369.842 170.906 368.475 172.961 366.854 174.809C367.334 175.194 367.893 175.468 368.491 175.612C369.088 175.756 369.711 175.765 370.313 175.64L370.92 168.697Z" fill="#ED847E"/>
<path d="M370.26 179.864C371.254 180.017 372.269 179.965 373.242 179.713C374.216 179.462 375.128 179.014 375.923 178.399C375.948 178.377 375.969 178.351 375.984 178.321C375.999 178.292 376.008 178.26 376.01 178.226C376.013 178.193 376.008 178.16 375.998 178.129C375.988 178.097 375.971 178.068 375.949 178.043C375.928 178.018 375.901 177.997 375.872 177.982C375.842 177.967 375.81 177.958 375.777 177.956C375.744 177.953 375.71 177.957 375.679 177.968C375.647 177.978 375.618 177.995 375.593 178.016C374.719 178.671 373.706 179.117 372.633 179.318C371.56 179.52 370.454 179.472 369.402 179.178C369.37 179.17 369.337 179.169 369.304 179.174C369.272 179.179 369.24 179.19 369.212 179.207C369.184 179.224 369.159 179.247 369.14 179.274C369.12 179.3 369.106 179.331 369.099 179.363C369.089 179.394 369.085 179.427 369.089 179.459C369.092 179.492 369.102 179.524 369.118 179.552C369.134 179.581 369.156 179.605 369.182 179.625C369.208 179.645 369.238 179.659 369.27 179.666C369.595 179.755 369.926 179.821 370.26 179.864Z" fill="#343B4C"/>
<path d="M383.117 164.208C383.202 164.192 383.28 164.151 383.341 164.089C383.388 164.042 383.426 163.987 383.451 163.926C383.477 163.864 383.49 163.799 383.49 163.732C383.49 163.666 383.477 163.601 383.451 163.539C383.426 163.478 383.388 163.423 383.341 163.376C382.824 162.767 382.164 162.294 381.42 162.002C380.676 161.709 379.871 161.606 379.078 161.7C379.011 161.709 378.948 161.732 378.89 161.767C378.833 161.801 378.783 161.847 378.744 161.901C378.705 161.955 378.676 162.017 378.661 162.082C378.646 162.147 378.644 162.214 378.655 162.28C378.681 162.413 378.757 162.53 378.868 162.606C378.98 162.683 379.116 162.713 379.249 162.69C379.87 162.631 380.497 162.72 381.077 162.949C381.657 163.179 382.175 163.542 382.589 164.01C382.645 164.093 382.727 164.157 382.821 164.193C382.916 164.228 383.019 164.233 383.117 164.208Z" fill="#343B4C"/>
<path d="M364.69 162.123C364.768 162.15 364.852 162.156 364.933 162.14C365.015 162.123 365.09 162.086 365.152 162.03C365.638 161.598 366.218 161.285 366.845 161.116C367.473 160.946 368.131 160.925 368.769 161.053C368.9 161.086 369.039 161.068 369.156 161.002C369.274 160.935 369.362 160.826 369.402 160.697C369.439 160.566 369.422 160.425 369.355 160.306C369.288 160.188 369.177 160.1 369.046 160.063C368.249 159.898 367.424 159.919 366.636 160.125C365.848 160.331 365.119 160.717 364.505 161.251C364.452 161.292 364.407 161.344 364.375 161.403C364.343 161.462 364.323 161.526 364.317 161.593C364.31 161.66 364.318 161.728 364.339 161.792C364.36 161.855 364.394 161.914 364.439 161.964C364.505 162.04 364.592 162.096 364.69 162.123Z" fill="#343B4C"/>
<path d="M385.018 273.451H375.104L379.909 284.011C379.909 284.011 389.651 283.866 389.149 278.85L385.018 273.451Z" fill="#FFC3BD"/>
<path d="M365.653 280.251L370.735 287.101L379.909 283.999L375.105 273.439L365.653 280.251Z" fill="#FFC3BD"/>
<path d="M458.502 475.055H463.32V291.231H458.502V475.055Z" fill="#2F7EA2"/>
<path d="M486.961 475.055H491.779V291.231H486.961V475.055Z" fill="#2F7EA2"/>
<path opacity="0.2" d="M486.961 475.055H491.779V291.231H486.961V475.055Z" fill="#343B4C"/>
<path d="M184.734 475.055H189.552L189.552 291.231H184.734L184.734 475.055Z" fill="#2F7EA2"/>
<path opacity="0.2" d="M184.734 291.23H189.552V414.743L184.734 403.958V291.23Z" fill="#343B4C"/>
<path d="M156.288 475.055H161.106L161.106 291.231H156.288L156.288 475.055Z" fill="#2F7EA2"/>
<path d="M156.288 398.758L463.333 398.758V291.231L156.288 291.231V398.758Z" fill="#2F7EA2"/>
<path d="M153.213 291.23L463.333 291.23V283.376L153.213 283.376V291.23Z" fill="#2F7EA2"/>
<path d="M491.766 291.23H463.32V398.758H491.766V291.23Z" fill="#2F7EA2"/>
<path opacity="0.2" d="M491.766 291.23H463.32V398.758H491.766V291.23Z" fill="#343B4C"/>
<path d="M494.842 283.391H463.32V291.245H494.842V283.391Z" fill="#2F7EA2"/>
<path opacity="0.2" d="M494.842 283.391H463.32V291.245H494.842V283.391Z" fill="#343B4C"/>
<path opacity="0.2" d="M156.288 296.709L491.779 296.709V291.244L156.288 291.244V296.709Z" fill="#343B4C"/>
<path d="M348.322 262.284H234.208C232.083 262.257 230.048 261.424 228.514 259.954C226.98 258.483 226.062 256.485 225.945 254.364L222.935 188.047C222.879 187.025 223.033 186.002 223.387 185.041C223.741 184.08 224.288 183.202 224.994 182.46C225.7 181.718 226.55 181.129 227.492 180.727C228.434 180.326 229.448 180.122 230.472 180.127H344.586C346.709 180.157 348.74 180.992 350.272 182.462C351.803 183.931 352.719 185.928 352.836 188.047L355.859 254.364C355.917 255.387 355.764 256.411 355.411 257.372C355.058 258.334 354.511 259.213 353.805 259.955C353.098 260.697 352.247 261.287 351.304 261.687C350.361 262.088 349.346 262.291 348.322 262.284Z" fill="#2F7EA2"/>
<path d="M346.791 262.284H232.677C230.552 262.257 228.517 261.424 226.983 259.954C225.449 258.483 224.53 256.485 224.413 254.364L221.404 188.047C221.348 187.025 221.502 186.002 221.856 185.041C222.21 184.08 222.757 183.202 223.463 182.46C224.168 181.718 225.019 181.129 225.961 180.727C226.903 180.326 227.917 180.122 228.941 180.127H343.055C345.177 180.157 347.209 180.992 348.74 182.462C350.272 183.931 351.188 185.928 351.305 188.047L354.328 254.364C354.385 255.387 354.233 256.411 353.88 257.372C353.526 258.334 352.98 259.213 352.273 259.955C351.567 260.697 350.716 261.287 349.773 261.687C348.83 262.088 347.815 262.291 346.791 262.284Z" fill="#2F7EA2"/>
<path opacity="0.2" d="M346.791 262.284H232.677C230.552 262.257 228.517 261.424 226.983 259.954C225.449 258.483 224.53 256.485 224.413 254.364L221.404 188.047C221.348 187.025 221.502 186.002 221.856 185.041C222.21 184.08 222.757 183.202 223.463 182.46C224.168 181.718 225.019 181.129 225.961 180.727C226.903 180.326 227.917 180.122 228.941 180.127H343.055C345.177 180.157 347.209 180.992 348.74 182.462C350.272 183.931 351.188 185.928 351.305 188.047L354.328 254.364C354.385 255.387 354.233 256.411 353.88 257.372C353.526 258.334 352.98 259.213 352.273 259.955C351.567 260.697 350.716 261.287 349.773 261.687C348.83 262.088 347.815 262.291 346.791 262.284Z" fill="white"/>
<path d="M299.983 222.209H278.19V262.284H299.983V222.209Z" fill="#2F7EA2"/>
<path d="M277.504 217.932L267.881 283.364H291.456L301.079 217.932H277.504ZM291.35 238.722L289.793 249.282C289.679 250.065 289.287 250.782 288.688 251.301C288.09 251.819 287.324 252.105 286.532 252.106H282.982C282.507 252.106 282.038 252.003 281.606 251.805C281.175 251.607 280.791 251.319 280.48 250.959C280.17 250.6 279.94 250.178 279.807 249.723C279.674 249.267 279.64 248.788 279.708 248.318L281.266 237.758C281.38 236.974 281.772 236.258 282.37 235.739C282.969 235.221 283.734 234.934 284.526 234.933H288.077C288.552 234.934 289.021 235.037 289.452 235.235C289.884 235.433 290.268 235.721 290.578 236.08C290.889 236.439 291.118 236.861 291.252 237.317C291.385 237.773 291.419 238.252 291.35 238.722Z" fill="#2F7EA2"/>
<path opacity="0.2" d="M277.504 217.932L267.881 283.364H291.456L301.079 217.932H277.504ZM291.35 238.722L289.793 249.282C289.679 250.065 289.287 250.782 288.688 251.301C288.09 251.819 287.324 252.105 286.532 252.106H282.982C282.507 252.106 282.038 252.003 281.606 251.805C281.175 251.607 280.791 251.319 280.48 250.959C280.17 250.6 279.94 250.178 279.807 249.723C279.674 249.267 279.64 248.788 279.708 248.318L281.266 237.758C281.38 236.974 281.772 236.258 282.37 235.739C282.969 235.221 283.734 234.934 284.526 234.933H288.077C288.552 234.934 289.021 235.037 289.452 235.235C289.884 235.433 290.268 235.721 290.578 236.08C290.889 236.439 291.118 236.861 291.252 237.317C291.385 237.773 291.419 238.252 291.35 238.722Z" fill="white"/>
<path d="M304.894 278.586H263.631L258.562 283.391H315.863L304.894 278.586Z" fill="#2F7EA2"/>
<path opacity="0.2" d="M304.894 278.586H263.631L258.562 283.391H315.863L304.894 278.586Z" fill="white"/>
<path d="M183.031 268.713C180.708 267.393 181.5 254.695 182.517 247.435C183.757 238.657 187.453 223.12 199.201 214.514C204.798 210.409 210.144 206.924 211.081 202.502C212.797 206.462 222.552 234.499 208.639 247.105C196.865 257.757 188.14 255.381 183.031 268.713Z" fill="#2F7EA2"/>
<g opacity="0.2">
<path opacity="0.2" d="M183.031 268.713C180.708 267.393 181.5 254.695 182.517 247.435C183.757 238.657 187.453 223.12 199.201 214.514C204.798 210.409 210.144 206.924 211.081 202.502C212.797 206.462 222.552 234.499 208.639 247.105C196.865 257.757 188.14 255.381 183.031 268.713Z" fill="#343B4C"/>
</g>
<path d="M186.12 261.504C188.826 259.986 185.724 245.189 183.243 236.768C180.246 226.577 173.039 208.572 156.843 198.725C149.16 194.039 141.861 190.079 139.92 184.918C138.415 189.498 133.584 225.574 153.12 240.041C169.713 252.278 177.474 246.087 186.12 261.504Z" fill="#2F7EA2"/>
<path d="M184.8 258.205C184.721 258.203 184.644 258.177 184.58 258.13C184.516 258.083 184.468 258.017 184.444 257.941C180.437 245.469 175.367 233.364 169.29 221.76C159.39 202.29 146.071 199.122 145.939 199.095C145.893 199.085 145.849 199.065 145.811 199.037C145.773 199.009 145.74 198.974 145.716 198.933C145.691 198.893 145.675 198.847 145.668 198.801C145.661 198.754 145.663 198.706 145.675 198.66C145.685 198.614 145.703 198.57 145.729 198.531C145.756 198.492 145.79 198.459 145.829 198.433C145.868 198.408 145.912 198.39 145.958 198.381C146.004 198.372 146.052 198.373 146.098 198.383C146.243 198.383 159.865 201.63 169.937 221.443C176.015 233.091 181.081 245.24 185.077 257.756C185.102 257.849 185.089 257.948 185.043 258.031C184.996 258.115 184.918 258.177 184.826 258.205H184.8Z" fill="white"/>
<path d="M142.692 211.873C142.646 211.875 142.6 211.868 142.557 211.852C142.514 211.836 142.475 211.812 142.441 211.781C142.374 211.712 142.337 211.619 142.337 211.523C142.337 211.427 142.374 211.335 142.441 211.266C144.884 208.929 147.995 207.413 151.341 206.928C154.686 206.443 158.1 207.013 161.106 208.56C161.149 208.58 161.187 208.608 161.218 208.643C161.25 208.678 161.273 208.719 161.288 208.763C161.303 208.808 161.309 208.855 161.305 208.902C161.3 208.948 161.287 208.994 161.264 209.035C161.246 209.079 161.219 209.118 161.184 209.151C161.15 209.184 161.109 209.209 161.065 209.225C161.02 209.241 160.972 209.248 160.925 209.245C160.878 209.242 160.831 209.229 160.789 209.207C157.912 207.736 154.647 207.199 151.45 207.673C148.253 208.146 145.284 209.605 142.956 211.847C142.874 211.886 142.78 211.895 142.692 211.873Z" fill="white"/>
<path d="M156.645 235.964C156.584 235.982 156.52 235.982 156.46 235.964C156.419 235.941 156.383 235.91 156.354 235.872C156.326 235.835 156.304 235.793 156.292 235.747C156.28 235.702 156.277 235.654 156.283 235.608C156.289 235.561 156.304 235.516 156.328 235.476C156.328 235.357 162.928 224.467 172.603 227.133C172.695 227.161 172.773 227.223 172.82 227.307C172.866 227.391 172.879 227.489 172.854 227.582C172.827 227.674 172.764 227.751 172.681 227.798C172.597 227.845 172.498 227.857 172.405 227.833C163.284 225.312 157.014 235.753 156.961 235.845C156.921 235.888 156.872 235.921 156.817 235.941C156.762 235.962 156.703 235.97 156.645 235.964Z" fill="white"/>
<path d="M167.112 217.457C167.033 217.455 166.956 217.429 166.892 217.382C166.828 217.334 166.78 217.268 166.756 217.193C166.421 215.942 166.543 214.613 167.099 213.444C167.31 213.113 167.588 212.83 167.915 212.614C168.243 212.398 168.612 212.253 169 212.19C169.046 212.178 169.094 212.177 169.141 212.184C169.187 212.192 169.232 212.21 169.272 212.236C169.311 212.262 169.345 212.296 169.371 212.336C169.397 212.376 169.414 212.42 169.422 212.467C169.442 212.562 169.424 212.66 169.372 212.742C169.32 212.823 169.239 212.881 169.145 212.903C168.853 212.941 168.574 213.043 168.327 213.203C168.081 213.363 167.873 213.576 167.719 213.827C167.272 214.826 167.179 215.948 167.455 217.008C167.469 217.053 167.474 217.101 167.468 217.147C167.463 217.194 167.448 217.24 167.425 217.28C167.401 217.321 167.37 217.357 167.332 217.385C167.294 217.413 167.251 217.433 167.205 217.444L167.112 217.457Z" fill="white"/>
<path d="M203.848 254.746H170.438L173.514 283.35H200.772L203.848 254.746Z" fill="#2F7EA2"/>
<path opacity="0.7" d="M203.848 254.746H170.438L173.514 283.35H200.772L203.848 254.746Z" fill="white"/>
<path d="M468.6 257.4V255.618C468.6 255.237 468.449 254.871 468.179 254.601C467.909 254.331 467.543 254.18 467.162 254.18H449.408C449.026 254.18 448.66 254.331 448.39 254.601C448.12 254.871 447.969 255.237 447.969 255.618V283.338H468.6V280.118C473.088 280.118 476.613 275.128 476.613 268.752C476.613 262.377 473.102 257.4 468.6 257.4ZM468.6 277.2V260.331C471.372 260.331 473.722 264.212 473.722 268.805C473.722 273.399 471.386 277.28 468.6 277.28V277.2Z" fill="#2F7EA2"/>
<path opacity="0.2" d="M468.6 257.4V255.618C468.6 255.237 468.449 254.871 468.179 254.601C467.909 254.331 467.543 254.18 467.162 254.18H449.408C449.026 254.18 448.66 254.331 448.39 254.601C448.12 254.871 447.969 255.237 447.969 255.618V283.338H468.6V280.118C473.088 280.118 476.613 275.128 476.613 268.752C476.613 262.377 473.102 257.4 468.6 257.4ZM468.6 277.2V260.331C471.372 260.331 473.722 264.212 473.722 268.805C473.722 273.399 471.386 277.28 468.6 277.28V277.2Z" fill="white"/>
<path opacity="0.3" d="M468.613 260.33H466.264L468.613 266.838V260.33Z" fill="#343B4C"/>
<path opacity="0.3" d="M468.613 280.17H466.264L468.613 281.252V280.17Z" fill="#343B4C"/>
</svg>
